<svg xmlns="http://www.w3.org/2000/svg" viewBox="0 0 512 512">
  <defs>
    <linearGradient id="g" x1="0" y1="0" x2="1" y2="1">
      <stop offset="0%" stop-color="#234b44"/>
      <stop offset="100%" stop-color="#b0cb53"/>
    </linearGradient>
  </defs>
  <rect width="512" height="512" rx="112" fill="#f6f1e5"/>
  <circle cx="256" cy="256" r="182" fill="url(#g)"/>
  <path d="M166 302c0-59 40-113 96-130 57 17 96 71 96 130 0 40-18 76-46 100-14 12-34 14-51 4-11-6-23-9-35-9s-24 3-35 9c-17 10-37 8-51-4-28-24-46-60-46-100Z" fill="#fffdf5"/>
  <path d="M256 138c29 31 46 69 46 107 0 34-14 67-40 89" fill="none" stroke="#234b44" stroke-linecap="round" stroke-linejoin="round" stroke-width="22"/>
  <path d="M230 224c-31 19-50 52-50 88" fill="none" stroke="#234b44" stroke-linecap="round" stroke-linejoin="round" stroke-width="22"/>
</svg>
